<?xml version="1.0" encoding="UTF-8"?>
<svg version="1.1" xmlns="http://www.w3.org/2000/svg" width="200" height="200">
<path d="M0 0 C66 0 132 0 200 0 C200 66 200 132 200 200 C134 200 68 200 0 200 C0 134 0 68 0 0 Z " fill="#FDFDFD" transform="translate(0,0)"/>
<path d="M0 0 C0.76279266 -0.00335861 1.52558533 -0.00671722 2.31149292 -0.01017761 C4.84138606 -0.01970144 7.37121308 -0.0216316 9.90112305 -0.02270508 C11.65748624 -0.02591724 13.41384917 -0.02928128 15.17021179 -0.03279114 C18.85648214 -0.03878639 22.54272903 -0.04063069 26.22900391 -0.04003906 C30.95018022 -0.03993755 35.67120577 -0.05357676 40.39234638 -0.07081127 C44.02205596 -0.08193758 47.6517292 -0.08395806 51.28145409 -0.08342934 C53.02175604 -0.084609 54.76205895 -0.08903002 56.50234413 -0.0967617 C58.93916953 -0.10657199 61.37566922 -0.10367923 63.8125 -0.09765625 C64.53008987 -0.10327576 65.24767975 -0.10889526 65.98701477 -0.11468506 C69.96607405 -0.08972605 73.01581241 0.39183516 76.6003418 2.14526367 C76.6003418 1.48526367 76.6003418 0.82526367 76.6003418 0.14526367 C81.56466545 -0.14675537 84.63735754 -0.00181206 88.6003418 3.14526367 C89.89351326 7.02477807 89.77250961 10.71516171 89.79321289 14.76000977 C89.80547913 16.07998207 89.80547913 16.07998207 89.81799316 17.42662048 C89.84282005 20.34064046 89.85935434 23.2546119 89.8737793 26.16870117 C89.87910297 27.16367237 89.88442665 28.15864357 89.88991165 29.18376541 C89.91662869 34.44794189 89.93601012 39.71209475 89.95043945 44.97631836 C89.96710359 50.41624418 90.0119004 55.85556611 90.0628109 61.29526329 C90.09643995 65.47655953 90.10801198 69.65771145 90.11366653 73.8391304 C90.12038866 75.84462741 90.13563557 77.8501146 90.15955734 79.85548019 C90.19112498 82.66140031 90.19125864 85.46567795 90.18383789 88.27172852 C90.20024323 89.09995621 90.21664856 89.9281839 90.23355103 90.7815094 C90.18640905 95.13515048 90.0085909 96.65151426 87.12637329 100.13735962 C86.2927829 100.79996796 85.4591925 101.46257629 84.6003418 102.14526367 C84.2703418 102.47526367 83.9403418 102.80526367 83.6003418 103.14526367 C81.33042293 103.23966345 79.05752212 103.26268594 76.78564453 103.25878906 C75.71740952 103.2590081 75.71740952 103.2590081 74.62759399 103.25923157 C72.26301067 103.25853238 69.89850518 103.25073973 67.53393555 103.24291992 C65.89868716 103.24105576 64.26343823 103.23963185 62.62818909 103.2386322 C58.31599394 103.23480685 54.00383227 103.22497642 49.69165039 103.21392822 C45.29468234 103.20371447 40.8977089 103.19913466 36.50073242 103.1940918 C27.86725349 103.18335416 19.2338018 103.16627754 10.6003418 103.14526367 C10.60541748 103.7492247 10.61049316 104.35318573 10.61572266 104.97544861 C10.61967041 105.77519608 10.62361816 106.57494354 10.62768555 107.39892578 C10.63276123 108.18851181 10.63783691 108.97809784 10.64306641 109.79161072 C10.58215136 113.14735543 10.1150471 116.39434828 9.6003418 119.70776367 C9.4147168 120.92592773 9.2290918 122.1440918 9.0378418 123.39916992 C8.8934668 124.30538086 8.7490918 125.2115918 8.6003418 126.14526367 C7.9403418 126.14526367 7.2803418 126.14526367 6.6003418 126.14526367 C5.9403418 131.75526367 5.2803418 137.36526367 4.6003418 143.14526367 C6.5803418 142.15526367 6.5803418 142.15526367 8.6003418 141.14526367 C9.15839292 138.2663048 9.15839292 138.2663048 9.1003418 134.95776367 C9.35255427 129.12454179 10.20612554 125.85337009 13.6003418 121.14526367 C15.9753418 120.95776367 15.9753418 120.95776367 18.6003418 121.14526367 C21.57243418 125.60340225 21.35227395 129.91896298 20.6003418 135.14526367 C19.21483606 137.85446819 17.93422354 139.08922499 15.6003418 141.14526367 C14.9403418 141.14526367 14.2803418 141.14526367 13.6003418 141.14526367 C13.9303418 142.46526367 14.2603418 143.78526367 14.6003418 145.14526367 C16.47915051 145.09757964 16.47915051 145.09757964 18.6003418 144.14526367 C22.5553135 139.36387997 23.23194537 135.72237499 23.3503418 129.77026367 C23.37999023 129.03420898 23.40963867 128.2981543 23.44018555 127.53979492 C23.51022213 125.74218937 23.55762298 123.94372577 23.6003418 122.14526367 C30.18993469 120.77657101 30.18993469 120.77657101 33.6003418 121.14526367 C36.17086134 125.00104299 35.85859135 128.1843179 35.7878418 132.64526367 C35.786875 133.80348633 35.786875 133.80348633 35.78588867 134.98510742 C35.76017667 138.28195706 35.6492018 140.99868367 34.6003418 144.14526367 C37.84506199 141.66971022 38.55275368 140.479415 39.1394043 136.36010742 C39.18695752 134.9348315 39.21507334 133.50879569 39.2253418 132.08276367 C39.36103637 124.50422181 39.36103637 124.50422181 41.6003418 121.14526367 C42.9203418 121.14526367 44.2403418 121.14526367 45.6003418 121.14526367 C45.6003418 122.46526367 45.6003418 123.78526367 45.6003418 125.14526367 C46.2603418 125.14526367 46.9203418 125.14526367 47.6003418 125.14526367 C48.5903418 123.16526367 48.5903418 123.16526367 49.6003418 121.14526367 C51.0853418 121.64026367 51.0853418 121.64026367 52.6003418 122.14526367 C52.6003418 126.10526367 52.6003418 130.06526367 52.6003418 134.14526367 C53.2603418 134.14526367 53.9203418 134.14526367 54.6003418 134.14526367 C54.9303418 130.51526367 55.2603418 126.88526367 55.6003418 123.14526367 C56.9203418 122.81526367 58.2403418 122.48526367 59.6003418 122.14526367 C59.72120398 128.57781768 59.42386044 134.76299422 58.6003418 141.14526367 C59.2603418 141.14526367 59.9203418 141.14526367 60.6003418 141.14526367 C60.7034668 140.25838867 60.8065918 139.37151367 60.9128418 138.45776367 C61.73453505 132.60924112 63.22828268 126.88374991 64.6003418 121.14526367 C65.5903418 121.14526367 66.5803418 121.14526367 67.6003418 121.14526367 C67.6003418 128.07526367 67.6003418 135.00526367 67.6003418 142.14526367 C69.05132937 139.24328853 68.91239713 136.49888448 69.1003418 133.27026367 C69.54630174 125.64116319 69.54630174 125.64116319 70.6003418 122.14526367 C72.2503418 121.81526367 73.9003418 121.48526367 75.6003418 121.14526367 C75.9303418 122.46526367 76.2603418 123.78526367 76.6003418 125.14526367 C77.5903418 123.82526367 78.5803418 122.50526367 79.6003418 121.14526367 C81.5803418 121.64026367 81.5803418 121.64026367 83.6003418 122.14526367 C83.78485205 136.92658486 83.78485205 136.92658486 82.6003418 143.14526367 C83.2603418 142.81526367 83.9203418 142.48526367 84.6003418 142.14526367 C85.07630525 138.8361844 85.3897705 135.55569389 85.63549805 132.22338867 C86.10676129 127.38627166 87.0896349 124.75546429 90.6003418 121.14526367 C95.3503418 121.89526367 95.3503418 121.89526367 97.6003418 124.14526367 C98.41017305 129.99287635 98.02730021 135.19521263 94.6003418 140.14526367 C93.6103418 140.47526367 92.6203418 140.80526367 91.6003418 141.14526367 C91.6003418 142.13526367 91.6003418 143.12526367 91.6003418 144.14526367 C92.9203418 144.14526367 94.2403418 144.14526367 95.6003418 144.14526367 C96.9203418 141.83526367 98.2403418 139.52526367 99.6003418 137.14526367 C100.2603418 137.14526367 100.9203418 137.14526367 101.6003418 137.14526367 C101.6003418 139.78526367 101.6003418 142.42526367 101.6003418 145.14526367 C100.6103418 145.47526367 99.6203418 145.80526367 98.6003418 146.14526367 C97.39152083 148.14542833 97.39152083 148.14542833 96.6003418 150.14526367 C94.2903418 150.14526367 91.9803418 150.14526367 89.6003418 150.14526367 C89.2703418 149.15526367 88.9403418 148.16526367 88.6003418 147.14526367 C87.6103418 147.14526367 86.6203418 147.14526367 85.6003418 147.14526367 C84.9403418 148.46526367 84.2803418 149.78526367 83.6003418 151.14526367 C81.1628418 150.77026367 81.1628418 150.77026367 78.6003418 150.14526367 C77.45219183 147.84896373 77.29264371 146.06828281 77.0378418 143.52026367 C76.95405273 142.70299805 76.87026367 141.88573242 76.78393555 141.04370117 C76.72334961 140.4172168 76.66276367 139.79073242 76.6003418 139.14526367 C76.2703418 141.45526367 75.9403418 143.76526367 75.6003418 146.14526367 C74.9403418 146.14526367 74.2803418 146.14526367 73.6003418 146.14526367 C73.6003418 147.46526367 73.6003418 148.78526367 73.6003418 150.14526367 C72.6103418 150.14526367 71.6203418 150.14526367 70.6003418 150.14526367 C70.6003418 149.48526367 70.6003418 148.82526367 70.6003418 148.14526367 C69.9403418 148.14526367 69.2803418 148.14526367 68.6003418 148.14526367 C68.6003418 148.80526367 68.6003418 149.46526367 68.6003418 150.14526367 C66.9503418 150.14526367 65.3003418 150.14526367 63.6003418 150.14526367 C63.2703418 148.82526367 62.9403418 147.50526367 62.6003418 146.14526367 C61.9403418 146.14526367 61.2803418 146.14526367 60.6003418 146.14526367 C60.2703418 147.79526367 59.9403418 149.44526367 59.6003418 151.14526367 C58.2803418 150.81526367 56.9603418 150.48526367 55.6003418 150.14526367 C55.2703418 147.50526367 54.9403418 144.86526367 54.6003418 142.14526367 C53.3937793 141.92870117 53.3937793 141.92870117 52.1628418 141.70776367 C49.6003418 141.14526367 49.6003418 141.14526367 48.6003418 140.14526367 C48.45919018 137.47467516 48.55787072 134.8209413 48.6003418 132.14526367 C47.9403418 132.14526367 47.2803418 132.14526367 46.6003418 132.14526367 C46.4765918 133.25901367 46.3528418 134.37276367 46.2253418 135.52026367 C45.61576638 140.44987358 44.62560495 145.28770622 43.6003418 150.14526367 C40.42992096 150.14526367 37.27000836 150.13936486 34.1003418 150.08276367 C30.74955558 149.89100139 30.74955558 149.89100139 28.6003418 151.14526367 C27.13838636 155.53112998 27.28283811 160.04202157 27.1706543 164.63354492 C26.95250714 169.78727154 26.06835542 173.5821018 23.6003418 178.14526367 C20.9128418 179.08276367 20.9128418 179.08276367 18.6003418 179.14526367 C16.1112857 170.9866909 17.47173723 161.46872238 18.6003418 153.14526367 C17.8578418 152.87713867 17.1153418 152.60901367 16.3503418 152.33276367 C13.73397625 151.20296946 11.79847069 149.93633166 9.6003418 148.14526367 C8.9403418 148.80526367 8.2803418 149.46526367 7.6003418 150.14526367 C4.8173126 150.35399086 3.11315975 150.40167265 0.6003418 149.14526367 C0.2703418 149.80526367 -0.0596582 150.46526367 -0.3996582 151.14526367 C-2.0496582 151.14526367 -3.6996582 151.14526367 -5.3996582 151.14526367 C-7.99984637 147.24498143 -7.55051335 143.67091798 -7.3996582 139.14526367 C-8.3896582 139.14526367 -9.3796582 139.14526367 -10.3996582 139.14526367 C-10.5027832 140.21776367 -10.6059082 141.29026367 -10.7121582 142.39526367 C-11.68933792 147.72533485 -11.68933792 147.72533485 -14.3996582 150.14526367 C-18.00536675 150.69998806 -20.29574059 149.98462226 -23.3996582 148.14526367 C-24.3896582 149.13526367 -24.3896582 149.13526367 -25.3996582 150.14526367 C-29.0246582 150.27026367 -29.0246582 150.27026367 -32.3996582 150.14526367 C-32.7296582 148.49526367 -33.0596582 146.84526367 -33.3996582 145.14526367 C-34.0596582 145.14526367 -34.7196582 145.14526367 -35.3996582 145.14526367 C-35.42669382 142.56185983 -35.44651431 139.97874059 -35.4621582 137.39526367 C-35.47053711 136.6656543 -35.47891602 135.93604492 -35.48754883 135.18432617 C-35.51819614 128.44191647 -35.51819614 128.44191647 -34.3996582 125.14526367 C-32.1496582 123.33276367 -32.1496582 123.33276367 -29.3996582 122.14526367 C-26.5871582 122.45776367 -26.5871582 122.45776367 -24.3996582 123.14526367 C-24.0696582 124.46526367 -23.7396582 125.78526367 -23.3996582 127.14526367 C-21.7496582 125.16526367 -20.0996582 123.18526367 -18.3996582 121.14526367 C-13.6496582 121.89526367 -13.6496582 121.89526367 -11.3996582 124.14526367 C-10.9855957 126.30932617 -10.9855957 126.30932617 -10.7746582 128.77026367 C-10.69989258 129.5875293 -10.62512695 130.40479492 -10.5480957 131.24682617 C-10.49911133 131.87331055 -10.45012695 132.49979492 -10.3996582 133.14526367 C-8.39575023 132.38607925 -8.39575023 132.38607925 -6.3996582 131.14526367 C-5.6830375 128.82678493 -5.01723793 126.49206664 -4.3996582 124.14526367 C-2.8996582 122.20776367 -2.8996582 122.20776367 -1.3996582 121.14526367 C-0.7396582 121.14526367 -0.0796582 121.14526367 0.6003418 121.14526367 C0.9303418 115.20526367 1.2603418 109.26526367 1.6003418 103.14526367 C-1.3696582 103.14526367 -4.3396582 103.14526367 -7.3996582 103.14526367 C-10.55732797 100.59714348 -11.97789979 99.07928618 -12.83427429 95.15228081 C-13.03745159 92.81475666 -13.0527697 90.53595021 -13.01489258 88.18994141 C-13.02044159 87.30952179 -13.0259906 86.42910217 -13.03170776 85.52200317 C-13.04347917 82.62372712 -13.01925636 79.72702314 -12.9934082 76.82885742 C-12.99169651 74.80916922 -12.99176338 72.7894788 -12.99353027 70.76979065 C-12.99187851 66.54227368 -12.973205 62.31528794 -12.94165039 58.08789062 C-12.90194805 52.67167735 -12.89760904 47.25615874 -12.90511322 41.83982754 C-12.90818379 37.67134752 -12.89605967 33.50302341 -12.87898254 29.33458138 C-12.87195673 27.33751465 -12.8688275 25.34043026 -12.86967468 23.34335136 C-12.86787526 20.55230687 -12.84648179 17.76209223 -12.81958008 14.97119141 C-12.82251068 14.14767685 -12.82544128 13.32416229 -12.82846069 12.47569275 C-12.760322 7.88966212 -12.36480649 4.87476343 -9.3996582 1.14526367 C-6.39333238 -0.35789924 -3.29727317 -0.00206488 0 0 Z " fill="#69ABDB" transform="translate(67.399658203125,10.854736328125)"/>
<path d="M0 0 C0.76279266 -0.00335861 1.52558533 -0.00671722 2.31149292 -0.01017761 C4.84138606 -0.01970144 7.37121308 -0.0216316 9.90112305 -0.02270508 C11.65748624 -0.02591724 13.41384917 -0.02928128 15.17021179 -0.03279114 C18.85648214 -0.03878639 22.54272903 -0.04063069 26.22900391 -0.04003906 C30.95018022 -0.03993755 35.67120577 -0.05357676 40.39234638 -0.07081127 C44.02205596 -0.08193758 47.6517292 -0.08395806 51.28145409 -0.08342934 C53.02175604 -0.084609 54.76205895 -0.08903002 56.50234413 -0.0967617 C58.93916953 -0.10657199 61.37566922 -0.10367923 63.8125 -0.09765625 C64.53008987 -0.10327576 65.24767975 -0.10889526 65.98701477 -0.11468506 C69.96607405 -0.08972605 73.01581241 0.39183516 76.6003418 2.14526367 C76.6003418 1.48526367 76.6003418 0.82526367 76.6003418 0.14526367 C81.56466545 -0.14675537 84.63735754 -0.00181206 88.6003418 3.14526367 C89.78608467 6.7024923 89.72024372 9.52302911 89.71386719 13.27880859 C89.71401321 14.00101089 89.71415924 14.7232132 89.71430969 15.46730042 C89.71361325 17.85347501 89.7058334 20.23957147 89.69799805 22.62573242 C89.69613291 24.28054258 89.69470946 25.93535328 89.69371033 27.59016418 C89.68989265 31.9450737 89.68006874 36.29994985 89.66900635 40.65484619 C89.65877613 45.09891305 89.65420925 49.5429853 89.64916992 53.98706055 C89.63844582 62.7064769 89.62137837 71.42586613 89.6003418 80.14526367 C88.6103418 80.14526367 87.6203418 80.14526367 86.6003418 80.14526367 C86.6003418 61.33526367 86.6003418 42.52526367 86.6003418 23.14526367 C80.65518555 23.1684668 74.7100293 23.19166992 68.5847168 23.21557617 C64.82038952 23.22579413 61.05607932 23.23542199 57.29174805 23.24291992 C51.31563775 23.2548797 45.33958868 23.26903471 39.36352539 23.29614258 C34.54599587 23.31785872 29.72853202 23.32982973 24.91095734 23.33501816 C23.07213558 23.33871612 21.23331746 23.34593721 19.39452362 23.35672379 C16.82079781 23.37122234 14.247344 23.3732423 11.67358398 23.37231445 C10.91185379 23.379505 10.1501236 23.38669556 9.36531067 23.394104 C5.61985938 23.37947428 2.77817281 23.24014705 -0.3996582 21.14526367 C-0.3996582 21.80526367 -0.3996582 22.46526367 -0.3996582 23.14526367 C-3.3696582 23.14526367 -6.3396582 23.14526367 -9.3996582 23.14526367 C-9.31533835 32.61161157 -9.22048781 42.07777791 -9.11213112 51.54388142 C-9.06215081 55.93921556 -9.01582099 60.33452546 -8.9777832 64.72998047 C-8.94095221 68.97056023 -8.89459835 73.21093806 -8.8415947 77.45134544 C-8.82303909 79.07045136 -8.80793544 80.68960059 -8.79631424 82.30877113 C-8.77947155 84.57389705 -8.75044205 86.83855931 -8.71850586 89.10351562 C-8.70518219 90.39369095 -8.69185852 91.68386627 -8.6781311 93.01313782 C-8.63714806 96.30776677 -8.63714806 96.30776677 -6.3996582 99.14526367 C-3.36099022 99.55663569 -0.47806117 99.27719523 2.6003418 99.14526367 C5.0753418 93.70026367 5.0753418 93.70026367 7.6003418 88.14526367 C14.8603418 88.14526367 22.1203418 88.14526367 29.6003418 88.14526367 C29.6003418 89.13526367 29.6003418 90.12526367 29.6003418 91.14526367 C19.7003418 91.64026367 19.7003418 91.64026367 9.6003418 92.14526367 C9.9303418 92.80526367 10.2603418 93.46526367 10.6003418 94.14526367 C10.6403338 96.14486379 10.64380979 98.14573609 10.6003418 100.14526367 C19.93636895 100.08409564 29.27208888 100.00702112 38.60780811 99.90954876 C42.94262146 99.86479163 47.27733965 99.82554751 51.61230469 99.79882812 C55.79460187 99.77284813 59.97653394 99.73248397 64.15860558 99.68207741 C65.75537264 99.66537264 67.3522029 99.65388088 68.94904518 99.64764977 C71.18321778 99.6380475 73.4164487 99.61003705 75.65039062 99.57763672 C76.92280106 99.56653366 78.19521149 99.5554306 79.50617981 99.54399109 C82.56082818 99.39575674 82.56082818 99.39575674 84.50273132 97.8006134 C86.17663345 95.27613545 86.12706274 92.94825406 86.2878418 89.95776367 C86.35358398 88.87108398 86.41932617 87.7844043 86.48706055 86.66479492 C86.52444336 85.83334961 86.56182617 85.0019043 86.6003418 84.14526367 C87.5903418 84.14526367 88.5803418 84.14526367 89.6003418 84.14526367 C90.36601592 95.76649541 90.36601592 95.76649541 88.5222168 99.08666992 C87.1628418 100.39526367 87.1628418 100.39526367 84.6003418 102.14526367 C84.2703418 102.47526367 83.9403418 102.80526367 83.6003418 103.14526367 C81.33042293 103.23966345 79.05752212 103.26268594 76.78564453 103.25878906 C75.71740952 103.2590081 75.71740952 103.2590081 74.62759399 103.25923157 C72.26301067 103.25853238 69.89850518 103.25073973 67.53393555 103.24291992 C65.89868716 103.24105576 64.26343823 103.23963185 62.62818909 103.2386322 C58.31599394 103.23480685 54.00383227 103.22497642 49.69165039 103.21392822 C45.29468234 103.20371447 40.8977089 103.19913466 36.50073242 103.1940918 C27.86725349 103.18335416 19.2338018 103.16627754 10.6003418 103.14526367 C10.60541748 103.7492247 10.61049316 104.35318573 10.61572266 104.97544861 C10.61967041 105.77519608 10.62361816 106.57494354 10.62768555 107.39892578 C10.63276123 108.18851181 10.63783691 108.97809784 10.64306641 109.79161072 C10.58215136 113.14735543 10.1150471 116.39434828 9.6003418 119.70776367 C9.4147168 120.92592773 9.2290918 122.1440918 9.0378418 123.39916992 C8.8934668 124.30538086 8.7490918 125.2115918 8.6003418 126.14526367 C7.9403418 126.14526367 7.2803418 126.14526367 6.6003418 126.14526367 C5.9403418 131.75526367 5.2803418 137.36526367 4.6003418 143.14526367 C6.5803418 142.15526367 6.5803418 142.15526367 8.6003418 141.14526367 C9.15839292 138.2663048 9.15839292 138.2663048 9.1003418 134.95776367 C9.35255427 129.12454179 10.20612554 125.85337009 13.6003418 121.14526367 C15.9753418 120.95776367 15.9753418 120.95776367 18.6003418 121.14526367 C21.57243418 125.60340225 21.35227395 129.91896298 20.6003418 135.14526367 C19.21483606 137.85446819 17.93422354 139.08922499 15.6003418 141.14526367 C14.9403418 141.14526367 14.2803418 141.14526367 13.6003418 141.14526367 C13.9303418 142.46526367 14.2603418 143.78526367 14.6003418 145.14526367 C16.47915051 145.09757964 16.47915051 145.09757964 18.6003418 144.14526367 C22.5553135 139.36387997 23.23194537 135.72237499 23.3503418 129.77026367 C23.37999023 129.03420898 23.40963867 128.2981543 23.44018555 127.53979492 C23.51022213 125.74218937 23.55762298 123.94372577 23.6003418 122.14526367 C30.18993469 120.77657101 30.18993469 120.77657101 33.6003418 121.14526367 C36.17086134 125.00104299 35.85859135 128.1843179 35.7878418 132.64526367 C35.786875 133.80348633 35.786875 133.80348633 35.78588867 134.98510742 C35.76017667 138.28195706 35.6492018 140.99868367 34.6003418 144.14526367 C37.84506199 141.66971022 38.55275368 140.479415 39.1394043 136.36010742 C39.18695752 134.9348315 39.21507334 133.50879569 39.2253418 132.08276367 C39.36103637 124.50422181 39.36103637 124.50422181 41.6003418 121.14526367 C42.9203418 121.14526367 44.2403418 121.14526367 45.6003418 121.14526367 C45.6003418 122.46526367 45.6003418 123.78526367 45.6003418 125.14526367 C46.2603418 125.14526367 46.9203418 125.14526367 47.6003418 125.14526367 C48.5903418 123.16526367 48.5903418 123.16526367 49.6003418 121.14526367 C51.0853418 121.64026367 51.0853418 121.64026367 52.6003418 122.14526367 C52.6003418 126.10526367 52.6003418 130.06526367 52.6003418 134.14526367 C53.2603418 134.14526367 53.9203418 134.14526367 54.6003418 134.14526367 C54.9303418 130.51526367 55.2603418 126.88526367 55.6003418 123.14526367 C56.9203418 122.81526367 58.2403418 122.48526367 59.6003418 122.14526367 C59.72120398 128.57781768 59.42386044 134.76299422 58.6003418 141.14526367 C59.2603418 141.14526367 59.9203418 141.14526367 60.6003418 141.14526367 C60.7034668 140.25838867 60.8065918 139.37151367 60.9128418 138.45776367 C61.73453505 132.60924112 63.22828268 126.88374991 64.6003418 121.14526367 C65.5903418 121.14526367 66.5803418 121.14526367 67.6003418 121.14526367 C67.6003418 128.07526367 67.6003418 135.00526367 67.6003418 142.14526367 C69.05132937 139.24328853 68.91239713 136.49888448 69.1003418 133.27026367 C69.54630174 125.64116319 69.54630174 125.64116319 70.6003418 122.14526367 C72.2503418 121.81526367 73.9003418 121.48526367 75.6003418 121.14526367 C75.9303418 122.46526367 76.2603418 123.78526367 76.6003418 125.14526367 C77.5903418 123.82526367 78.5803418 122.50526367 79.6003418 121.14526367 C81.5803418 121.64026367 81.5803418 121.64026367 83.6003418 122.14526367 C83.78485205 136.92658486 83.78485205 136.92658486 82.6003418 143.14526367 C83.2603418 142.81526367 83.9203418 142.48526367 84.6003418 142.14526367 C85.07630525 138.8361844 85.3897705 135.55569389 85.63549805 132.22338867 C86.10676129 127.38627166 87.0896349 124.75546429 90.6003418 121.14526367 C95.3503418 121.89526367 95.3503418 121.89526367 97.6003418 124.14526367 C98.41017305 129.99287635 98.02730021 135.19521263 94.6003418 140.14526367 C93.6103418 140.47526367 92.6203418 140.80526367 91.6003418 141.14526367 C91.6003418 142.13526367 91.6003418 143.12526367 91.6003418 144.14526367 C92.9203418 144.14526367 94.2403418 144.14526367 95.6003418 144.14526367 C96.9203418 141.83526367 98.2403418 139.52526367 99.6003418 137.14526367 C100.2603418 137.14526367 100.9203418 137.14526367 101.6003418 137.14526367 C101.6003418 139.78526367 101.6003418 142.42526367 101.6003418 145.14526367 C100.6103418 145.47526367 99.6203418 145.80526367 98.6003418 146.14526367 C97.39152083 148.14542833 97.39152083 148.14542833 96.6003418 150.14526367 C94.2903418 150.14526367 91.9803418 150.14526367 89.6003418 150.14526367 C89.2703418 149.15526367 88.9403418 148.16526367 88.6003418 147.14526367 C87.6103418 147.14526367 86.6203418 147.14526367 85.6003418 147.14526367 C84.9403418 148.46526367 84.2803418 149.78526367 83.6003418 151.14526367 C81.1628418 150.77026367 81.1628418 150.77026367 78.6003418 150.14526367 C77.45219183 147.84896373 77.29264371 146.06828281 77.0378418 143.52026367 C76.95405273 142.70299805 76.87026367 141.88573242 76.78393555 141.04370117 C76.72334961 140.4172168 76.66276367 139.79073242 76.6003418 139.14526367 C76.2703418 141.45526367 75.9403418 143.76526367 75.6003418 146.14526367 C74.9403418 146.14526367 74.2803418 146.14526367 73.6003418 146.14526367 C73.6003418 147.46526367 73.6003418 148.78526367 73.6003418 150.14526367 C72.6103418 150.14526367 71.6203418 150.14526367 70.6003418 150.14526367 C70.6003418 149.48526367 70.6003418 148.82526367 70.6003418 148.14526367 C69.9403418 148.14526367 69.2803418 148.14526367 68.6003418 148.14526367 C68.6003418 148.80526367 68.6003418 149.46526367 68.6003418 150.14526367 C66.9503418 150.14526367 65.3003418 150.14526367 63.6003418 150.14526367 C63.2703418 148.82526367 62.9403418 147.50526367 62.6003418 146.14526367 C61.9403418 146.14526367 61.2803418 146.14526367 60.6003418 146.14526367 C60.2703418 147.79526367 59.9403418 149.44526367 59.6003418 151.14526367 C58.2803418 150.81526367 56.9603418 150.48526367 55.6003418 150.14526367 C55.2703418 147.50526367 54.9403418 144.86526367 54.6003418 142.14526367 C53.3937793 141.92870117 53.3937793 141.92870117 52.1628418 141.70776367 C49.6003418 141.14526367 49.6003418 141.14526367 48.6003418 140.14526367 C48.45919018 137.47467516 48.55787072 134.8209413 48.6003418 132.14526367 C47.9403418 132.14526367 47.2803418 132.14526367 46.6003418 132.14526367 C46.4765918 133.25901367 46.3528418 134.37276367 46.2253418 135.52026367 C45.61576638 140.44987358 44.62560495 145.28770622 43.6003418 150.14526367 C40.42992096 150.14526367 37.27000836 150.13936486 34.1003418 150.08276367 C30.74955558 149.89100139 30.74955558 149.89100139 28.6003418 151.14526367 C27.13838636 155.53112998 27.28283811 160.04202157 27.1706543 164.63354492 C26.95250714 169.78727154 26.06835542 173.5821018 23.6003418 178.14526367 C20.9128418 179.08276367 20.9128418 179.08276367 18.6003418 179.14526367 C16.1112857 170.9866909 17.47173723 161.46872238 18.6003418 153.14526367 C17.8578418 152.87713867 17.1153418 152.60901367 16.3503418 152.33276367 C13.73397625 151.20296946 11.79847069 149.93633166 9.6003418 148.14526367 C8.9403418 148.80526367 8.2803418 149.46526367 7.6003418 150.14526367 C4.8173126 150.35399086 3.11315975 150.40167265 0.6003418 149.14526367 C0.2703418 149.80526367 -0.0596582 150.46526367 -0.3996582 151.14526367 C-2.0496582 151.14526367 -3.6996582 151.14526367 -5.3996582 151.14526367 C-7.99984637 147.24498143 -7.55051335 143.67091798 -7.3996582 139.14526367 C-8.3896582 139.14526367 -9.3796582 139.14526367 -10.3996582 139.14526367 C-10.5027832 140.21776367 -10.6059082 141.29026367 -10.7121582 142.39526367 C-11.68933792 147.72533485 -11.68933792 147.72533485 -14.3996582 150.14526367 C-18.00536675 150.69998806 -20.29574059 149.98462226 -23.3996582 148.14526367 C-24.3896582 149.13526367 -24.3896582 149.13526367 -25.3996582 150.14526367 C-29.0246582 150.27026367 -29.0246582 150.27026367 -32.3996582 150.14526367 C-32.7296582 148.49526367 -33.0596582 146.84526367 -33.3996582 145.14526367 C-34.0596582 145.14526367 -34.7196582 145.14526367 -35.3996582 145.14526367 C-35.42669382 142.56185983 -35.44651431 139.97874059 -35.4621582 137.39526367 C-35.47053711 136.6656543 -35.47891602 135.93604492 -35.48754883 135.18432617 C-35.51819614 128.44191647 -35.51819614 128.44191647 -34.3996582 125.14526367 C-32.1496582 123.33276367 -32.1496582 123.33276367 -29.3996582 122.14526367 C-26.5871582 122.45776367 -26.5871582 122.45776367 -24.3996582 123.14526367 C-24.0696582 124.46526367 -23.7396582 125.78526367 -23.3996582 127.14526367 C-21.7496582 125.16526367 -20.0996582 123.18526367 -18.3996582 121.14526367 C-13.6496582 121.89526367 -13.6496582 121.89526367 -11.3996582 124.14526367 C-10.9855957 126.30932617 -10.9855957 126.30932617 -10.7746582 128.77026367 C-10.69989258 129.5875293 -10.62512695 130.40479492 -10.5480957 131.24682617 C-10.49911133 131.87331055 -10.45012695 132.49979492 -10.3996582 133.14526367 C-8.39575023 132.38607925 -8.39575023 132.38607925 -6.3996582 131.14526367 C-5.6830375 128.82678493 -5.01723793 126.49206664 -4.3996582 124.14526367 C-2.8996582 122.20776367 -2.8996582 122.20776367 -1.3996582 121.14526367 C-0.7396582 121.14526367 -0.0796582 121.14526367 0.6003418 121.14526367 C0.9303418 115.20526367 1.2603418 109.26526367 1.6003418 103.14526367 C-1.3696582 103.14526367 -4.3396582 103.14526367 -7.3996582 103.14526367 C-10.55732797 100.59714348 -11.97789979 99.07928618 -12.83427429 95.15228081 C-13.03745159 92.81475666 -13.0527697 90.53595021 -13.01489258 88.18994141 C-13.02044159 87.30952179 -13.0259906 86.42910217 -13.03170776 85.52200317 C-13.04347917 82.62372712 -13.01925636 79.72702314 -12.9934082 76.82885742 C-12.99169651 74.80916922 -12.99176338 72.7894788 -12.99353027 70.76979065 C-12.99187851 66.54227368 -12.973205 62.31528794 -12.94165039 58.08789062 C-12.90194805 52.67167735 -12.89760904 47.25615874 -12.90511322 41.83982754 C-12.90818379 37.67134752 -12.89605967 33.50302341 -12.87898254 29.33458138 C-12.87195673 27.33751465 -12.8688275 25.34043026 -12.86967468 23.34335136 C-12.86787526 20.55230687 -12.84648179 17.76209223 -12.81958008 14.97119141 C-12.82251068 14.14767685 -12.82544128 13.32416229 -12.82846069 12.47569275 C-12.760322 7.88966212 -12.36480649 4.87476343 -9.3996582 1.14526367 C-6.39333238 -0.35789924 -3.29727317 -0.00206488 0 0 Z " fill="#111111" transform="translate(67.399658203125,10.854736328125)"/>
<path d="M0 0 C0.76279266 -0.00335861 1.52558533 -0.00671722 2.31149292 -0.01017761 C4.84138606 -0.01970144 7.37121308 -0.0216316 9.90112305 -0.02270508 C11.65748624 -0.02591724 13.41384917 -0.02928128 15.17021179 -0.03279114 C18.85648214 -0.03878639 22.54272903 -0.04063069 26.22900391 -0.04003906 C30.95018022 -0.03993755 35.67120577 -0.05357676 40.39234638 -0.07081127 C44.02205596 -0.08193758 47.6517292 -0.08395806 51.28145409 -0.08342934 C53.02175604 -0.084609 54.76205895 -0.08903002 56.50234413 -0.0967617 C58.93916953 -0.10657199 61.37566922 -0.10367923 63.8125 -0.09765625 C64.53008987 -0.10327576 65.24767975 -0.10889526 65.98701477 -0.11468506 C69.96607405 -0.08972605 73.01581241 0.39183516 76.6003418 2.14526367 C76.6003418 1.48526367 76.6003418 0.82526367 76.6003418 0.14526367 C81.56466545 -0.14675537 84.63735754 -0.00181206 88.6003418 3.14526367 C89.78608467 6.7024923 89.72024372 9.52302911 89.71386719 13.27880859 C89.71401321 14.00101089 89.71415924 14.7232132 89.71430969 15.46730042 C89.71361325 17.85347501 89.7058334 20.23957147 89.69799805 22.62573242 C89.69613291 24.28054258 89.69470946 25.93535328 89.69371033 27.59016418 C89.68989265 31.9450737 89.68006874 36.29994985 89.66900635 40.65484619 C89.65877613 45.09891305 89.65420925 49.5429853 89.64916992 53.98706055 C89.63844582 62.7064769 89.62137837 71.42586613 89.6003418 80.14526367 C88.6103418 80.14526367 87.6203418 80.14526367 86.6003418 80.14526367 C86.6003418 61.33526367 86.6003418 42.52526367 86.6003418 23.14526367 C80.65518555 23.1684668 74.7100293 23.19166992 68.5847168 23.21557617 C64.82038952 23.22579413 61.05607932 23.23542199 57.29174805 23.24291992 C51.31563775 23.2548797 45.33958868 23.26903471 39.36352539 23.29614258 C34.54599587 23.31785872 29.72853202 23.32982973 24.91095734 23.33501816 C23.07213558 23.33871612 21.23331746 23.34593721 19.39452362 23.35672379 C16.82079781 23.37122234 14.247344 23.3732423 11.67358398 23.37231445 C10.91185379 23.379505 10.1501236 23.38669556 9.36531067 23.394104 C5.61985938 23.37947428 2.77817281 23.24014705 -0.3996582 21.14526367 C-0.3996582 21.80526367 -0.3996582 22.46526367 -0.3996582 23.14526367 C-3.3696582 23.14526367 -6.3396582 23.14526367 -9.3996582 23.14526367 C-9.3996582 47.23526367 -9.3996582 71.32526367 -9.3996582 96.14526367 C-9.7296582 96.14526367 -10.0596582 96.14526367 -10.3996582 96.14526367 C-10.3996582 71.72526367 -10.3996582 47.30526367 -10.3996582 22.14526367 C-7.4296582 22.14526367 -4.4596582 22.14526367 -1.3996582 22.14526367 C-1.3996582 21.48526367 -1.3996582 20.82526367 -1.3996582 20.14526367 C-4.3696582 20.14526367 -7.3396582 20.14526367 -10.3996582 20.14526367 C-10.46024414 19.3022168 -10.52083008 18.45916992 -10.58325195 17.59057617 C-10.66704102 16.49487305 -10.75083008 15.39916992 -10.8371582 14.27026367 C-10.91836914 13.1797168 -10.99958008 12.08916992 -11.08325195 10.96557617 C-11.22967524 8.19797396 -11.22967524 8.19797396 -12.3996582 6.14526367 C-9.2116597 -0.07892389 -6.56017324 -0.00410824 0 0 Z " fill="#5C5E60" transform="translate(67.399658203125,10.854736328125)"/>
<path d="M0 0 C4.75 0.75 4.75 0.75 7 3 C7.4140625 5.1640625 7.4140625 5.1640625 7.625 7.625 C7.69976562 8.44226563 7.77453125 9.25953125 7.8515625 10.1015625 C7.92503906 11.04128906 7.92503906 11.04128906 8 12 C8.5775 11.67 9.155 11.34 9.75 11 C12 10 12 10 16 10 C16.33 9.01 16.66 8.02 17 7 C17.66 7 18.32 7 19 7 C19 11.62 19 16.24 19 21 C18.34 21 17.68 21 17 21 C17 21.66 17 22.32 17 23 C15.68 22.34 14.36 21.68 13 21 C13.33 23.31 13.66 25.62 14 28 C15.32 28 16.64 28 18 28 C18 28.66 18 29.32 18 30 C16.35 30 14.7 30 13 30 C10.39981184 26.09971775 10.84914486 22.52565431 11 18 C10.01 18 9.02 18 8 18 C7.896875 19.0725 7.79375 20.145 7.6875 21.25 C6.71032028 26.58007117 6.71032028 26.58007117 4 29 C0.39429145 29.55472439 -1.89608238 28.83935859 -5 27 C-5.66 27.66 -6.32 28.32 -7 29 C-10.625 29.125 -10.625 29.125 -14 29 C-14.33 27.35 -14.66 25.7 -15 24 C-15.66 24 -16.32 24 -17 24 C-17.02703562 21.41659616 -17.04685611 18.83347692 -17.0625 16.25 C-17.07087891 15.52039063 -17.07925781 14.79078125 -17.08789062 14.0390625 C-17.11853794 7.2966528 -17.11853794 7.2966528 -16 4 C-13.75 2.1875 -13.75 2.1875 -11 1 C-8.1875 1.3125 -8.1875 1.3125 -6 2 C-5.67 3.32 -5.34 4.64 -5 6 C-3.35 4.02 -1.7 2.04 0 0 Z " fill="#222222" transform="translate(49,132)"/>
<path d="M0 0 C0.33 0 0.66 0 1 0 C1 4.29 1 8.58 1 13 C3.97 13 6.94 13 10 13 C10 13.66 10 14.32 10 15 C7.03 15 4.06 15 1 15 C1 39.42 1 63.84 1 89 C1.66 89 2.32 89 3 89 C3.66 89.99 4.32 90.98 5 92 C8.03866799 92.41137202 10.92159703 92.13193156 14 92 C15.65 88.37 17.3 84.74 19 81 C26.26 81 33.52 81 41 81 C41 81.99 41 82.98 41 84 C31.1 84.495 31.1 84.495 21 85 C21.495 85.99 21.495 85.99 22 87 C22.039992 88.99960012 22.04346799 91.00047242 22 93 C31.33602715 92.93883197 40.67174708 92.86175744 50.00746632 92.76428509 C54.34227966 92.71952795 58.67699786 92.68028384 63.01196289 92.65356445 C67.19426007 92.62758445 71.37619215 92.5872203 75.55826378 92.53681374 C77.15503084 92.52010897 78.7518611 92.50861721 80.34870338 92.50238609 C82.58287598 92.49278383 84.81610691 92.46477338 87.05004883 92.43237305 C88.32245926 92.42126999 89.59486969 92.41016693 90.90583801 92.39872742 C93.96048639 92.25049306 93.96048639 92.25049306 95.90238953 90.65534973 C97.57629165 88.13087178 97.52672095 85.80299039 97.6875 82.8125 C97.75324219 81.72582031 97.81898438 80.63914062 97.88671875 79.51953125 C97.92410156 78.68808594 97.96148437 77.85664062 98 77 C98.99 77 99.98 77 101 77 C101.76567413 88.62123174 101.76567413 88.62123174 99.921875 91.94140625 C98.5625 93.25 98.5625 93.25 96 95 C95.67 95.33 95.34 95.66 95 96 C92.73008113 96.09439978 90.45718033 96.11742226 88.18530273 96.11352539 C87.11706772 96.11374443 87.11706772 96.11374443 86.0272522 96.1139679 C83.66266888 96.1132687 81.29816339 96.10547606 78.93359375 96.09765625 C77.29834537 96.09579209 75.66309643 96.09436818 74.02784729 96.09336853 C69.71565215 96.08954318 65.40349048 96.07971275 61.09130859 96.06866455 C56.69434054 96.0584508 52.29736711 96.05387099 47.90039062 96.04882812 C39.26691169 96.03809049 30.63346 96.02101387 22 96 C22 96.99 22 97.98 22 99 C21.34 99 20.68 99 20 99 C20 98.01 20 97.02 20 96 C19.01 96 18.02 96 17 96 C16.67 103.26 16.34 110.52 16 118 C15.67 118 15.34 118 15 118 C14.67 115.36 14.34 112.72 14 110 C13.34 111.32 12.68 112.64 12 114 C12.495 105.09 12.495 105.09 13 96 C10.03 96 7.06 96 4 96 C0.8568349 93.45744929 -0.57780308 91.94160079 -1.42890549 88.02754784 C-1.62354281 85.72235649 -1.63039386 83.47768405 -1.58349609 81.16479492 C-1.58583252 80.29745728 -1.58816895 79.43011963 -1.59057617 78.53649902 C-1.59218475 75.68386656 -1.55822906 72.83287035 -1.5234375 69.98046875 C-1.51664627 67.99604374 -1.51192517 66.01161065 -1.50918579 64.0271759 C-1.49852346 59.87700864 -1.47185922 55.72738217 -1.43212891 51.57739258 C-1.38109652 46.24614099 -1.35608984 40.9151992 -1.34119225 35.58373547 C-1.32643938 30.50760327 -1.30119673 25.43154454 -1.2734375 20.35546875 C-1.26852673 19.38174002 -1.26361595 18.40801128 -1.25855637 17.40477562 C-1.24235687 14.66584532 -1.21895723 11.92708426 -1.19287109 9.18823242 C-1.18861115 8.36903824 -1.1843512 7.54984406 -1.17996216 6.70582581 C-1.1151226 1.1151226 -1.1151226 1.1151226 0 0 Z " fill="#282C2F" transform="translate(56,18)"/>
<path d="M0 0 C0.33 1.32 0.66 2.64 1 4 C1.99 2.68 2.98 1.36 4 0 C5.32 0.33 6.64 0.66 8 1 C8.18451025 15.78132118 8.18451025 15.78132118 7 22 C7.66 21.67 8.32 21.34 9 21 C9.47596346 17.69092073 9.78942871 14.41043022 10.03515625 11.078125 C10.50641949 6.24100799 11.4892931 3.61020062 15 0 C19.75 0.75 19.75 0.75 22 3 C22.80983125 8.84761268 22.42695842 14.04994895 19 19 C18.01 19.33 17.02 19.66 16 20 C16 20.99 16 21.98 16 23 C17.32 23 18.64 23 20 23 C21.32 20.69 22.64 18.38 24 16 C24.66 16 25.32 16 26 16 C26 18.64 26 21.28 26 24 C25.01 24.33 24.02 24.66 23 25 C21.79117904 27.00016466 21.79117904 27.00016466 21 29 C18.69 29 16.38 29 14 29 C13.67 28.01 13.34 27.02 13 26 C12.01 26 11.02 26 10 26 C9.34 27.32 8.68 28.64 8 30 C5.5625 29.625 5.5625 29.625 3 29 C1.85185003 26.70370006 1.69230191 24.92301914 1.4375 22.375 C1.35371094 21.55773437 1.26992187 20.74046875 1.18359375 19.8984375 C1.12300781 19.27195313 1.06242188 18.64546875 1 18 C0.67 20.31 0.34 22.62 0 25 C-0.33 25 -0.66 25 -1 25 C-1.97159933 17.31395526 -2.10920422 9.74136601 -2 2 C-2.66 2 -3.32 2 -4 2 C-4.33 8.27 -4.66 14.54 -5 21 C-5.66 21 -6.32 21 -7 21 C-6.85879984 18.41633755 -6.71221667 15.83317115 -6.5625 13.25 C-6.52318359 12.52039063 -6.48386719 11.79078125 -6.44335938 11.0390625 C-6.03377109 4.10756844 -6.03377109 4.10756844 -5 1 C-3 0 -3 0 0 0 Z " fill="#191919" transform="translate(143,132)"/>
<path d="M0 0 C1.32 0 2.64 0 4 0 C4 1.32 4 2.64 4 4 C4.66 4 5.32 4 6 4 C6.66 2.68 7.32 1.36 8 0 C8.99 0.33 9.98 0.66 11 1 C11 4.96 11 8.92 11 13 C11.66 13 12.32 13 13 13 C13.33 9.37 13.66 5.74 14 2 C15.32 1.67 16.64 1.34 18 1 C18.12086218 7.43255401 17.82351864 13.61773055 17 20 C17.66 20 18.32 20 19 20 C19.103125 19.113125 19.20625 18.22625 19.3125 17.3125 C20.13419325 11.46397745 21.62794088 5.73848624 23 0 C23.99 0 24.98 0 26 0 C26 6.93 26 13.86 26 21 C26.99 21 27.98 21 29 21 C28.98839844 20.21496094 28.97679687 19.42992187 28.96484375 18.62109375 C28.91624493 12.96280225 28.98705251 7.57121122 30 2 C30.66 2 31.32 2 32 2 C33.81294964 22.65467626 33.81294964 22.65467626 32 29 C31.01 29 30.02 29 29 29 C29 28.34 29 27.68 29 27 C28.34 27 27.68 27 27 27 C27 27.66 27 28.32 27 29 C25.35 29 23.7 29 22 29 C21.67 27.68 21.34 26.36 21 25 C20.34 25 19.68 25 19 25 C18.67 26.65 18.34 28.3 18 30 C16.68 29.67 15.36 29.34 14 29 C13.67 26.36 13.34 23.72 13 21 C12.195625 20.855625 11.39125 20.71125 10.5625 20.5625 C8 20 8 20 7 19 C6.85884839 16.32941149 6.95752893 13.67567762 7 11 C6.34 11 5.68 11 5 11 C4.67 13.64 4.34 16.28 4 19 C2.875 15.25 2.875 15.25 4 13 C3.34 13 2.68 13 2 13 C1.67 13.66 1.34 14.32 1 15 C1.33 10.71 1.66 6.42 2 2 C1.34 2 0.68 2 0 2 C-0.33 4.97 -0.66 7.94 -1 11 C-1.33 11 -1.66 11 -2 11 C-2.25 3.375 -2.25 3.375 0 0 Z " fill="#181818" transform="translate(109,132)"/>
<path d="M0 0 C4.96432365 -0.29201904 8.03701574 -0.14707573 12 3 C13.18574288 6.55722863 13.11990193 9.37776544 13.11352539 13.13354492 C13.11367142 13.85574722 13.11381744 14.57794952 13.1139679 15.32203674 C13.11327145 17.70821134 13.1054916 20.09430779 13.09765625 22.48046875 C13.09579112 24.1352789 13.09436766 25.79008961 13.09336853 27.44490051 C13.08955085 31.79981003 13.07972695 36.15468618 13.06866455 40.50958252 C13.05843433 44.95364938 13.05386745 49.39772163 13.04882812 53.84179688 C13.03810402 62.56121323 13.02103657 71.28060246 13 80 C12.01 80 11.02 80 10 80 C10 61.19 10 42.38 10 23 C-17.39 23 -44.78 23 -73 23 C-73 22.01 -73 21.02 -73 20 C-45.61 20 -18.22 20 10 20 C9.58811472 12.37928492 9.58811472 12.37928492 8 5 C6.12612784 4.19787372 6.12612784 4.19787372 3.9375 3.8125 C3.20402344 3.65394531 2.47054687 3.49539062 1.71484375 3.33203125 C0.86599609 3.16767578 0.86599609 3.16767578 0 3 C0 2.01 0 1.02 0 0 Z " fill="#0E161B" transform="translate(144,11)"/>
<path d="M0 0 C2.64 0 5.28 0 8 0 C6.68 0.33 5.36 0.66 4 1 C4.03029297 1.96260742 4.06058594 2.92521484 4.09179688 3.91699219 C4.82633179 27.61835517 5.13928246 51.28769733 5 75 C7.31 75 9.62 75 12 75 C12.33 72.69 12.66 70.38 13 68 C11.35 68 9.7 68 8 68 C8 66.68 8 65.36 8 64 C9.65 64 11.3 64 13 64 C14.60455021 68.22250055 15.33807057 70.15482358 13.625 74.4375 C13.08875 75.283125 12.5525 76.12875 12 77 C10.56416999 77.10836453 9.1259798 77.18576167 7.6875 77.25 C6.88699219 77.29640625 6.08648437 77.3428125 5.26171875 77.390625 C3 77 3 77 1.37992859 75.42279053 C-0.50646715 72.1107773 -0.36024723 69.64779797 -0.34057617 65.84472656 C-0.34101425 65.13213181 -0.34145233 64.41953705 -0.34190369 63.68534851 C-0.33981851 61.33682579 -0.3165012 58.98902255 -0.29296875 56.640625 C-0.28737181 55.00966787 -0.28310217 53.37870568 -0.28010559 51.7477417 C-0.26866449 47.46012386 -0.23920378 43.17281207 -0.20599365 38.88531494 C-0.17527685 34.50822082 -0.16159682 30.13107714 -0.14648438 25.75390625 C-0.11433324 17.16913057 -0.06314595 8.58460338 0 0 Z " fill="#4F9DCD" transform="translate(58,34)"/>
<path d="M0 0 C0 3.63 0 7.26 0 11 C-0.99 11 -1.98 11 -3 11 C-3 9.02 -3 7.04 -3 5 C-3.99 5 -4.98 5 -6 5 C-6.33 9.62 -6.66 14.24 -7 19 C-1.42163702 19.31622777 -1.42163702 19.31622777 2 18 C2 16.35 2 14.7 2 13 C2.99 12.67 3.98 12.34 5 12 C5.33 14.64 5.66 17.28 6 20 C6.804375 19.814375 7.60875 19.62875 8.4375 19.4375 C9.7059375 19.2209375 9.7059375 19.2209375 11 19 C12 20 12 20 12.1875 22.4375 C12 25 12 25 10 27 C6.38245897 27.38079379 4.11598788 26.84651134 1 25 C0.34 25.66 -0.32 26.32 -1 27 C-4.625 27.125 -4.625 27.125 -8 27 C-8.33 25.35 -8.66 23.7 -9 22 C-9.66 22 -10.32 22 -11 22 C-11.02703562 19.41659616 -11.04685611 16.83347692 -11.0625 14.25 C-11.07087891 13.52039063 -11.07925781 12.79078125 -11.08789062 12.0390625 C-11.11853794 5.2966528 -11.11853794 5.2966528 -10 2 C-6.03530897 -1.19377888 -5.28333721 -1.05666744 0 0 Z " fill="#1D1D1D" transform="translate(43,134)"/>
<path d="M0 0 C26.07 0 52.14 0 79 0 C79 0.99 79 1.98 79 3 C78.02947189 3.00808685 77.05894379 3.01617371 76.05900574 3.02450562 C66.92109716 3.10192698 57.78333822 3.18965603 48.64562511 3.28752708 C43.94761812 3.33751324 39.24963386 3.38384304 34.55151367 3.421875 C30.01916832 3.45869856 25.48701216 3.50505044 20.95482826 3.55806351 C19.22407659 3.57662306 17.49328434 3.59172524 15.76247215 3.60334396 C13.34169435 3.62017982 10.92135134 3.64920792 8.50073242 3.68115234 C7.42287476 3.68439262 7.42287476 3.68439262 6.32324219 3.68769836 C2.66753062 3.74949234 1.1282354 3.91450973 -2 6 C-1.49396008 3.83125748 -1.00016187 2.00032373 0 0 Z " fill="#222222" transform="translate(60,11)"/>
<path d="M0 0 C11.22 0 22.44 0 34 0 C34 0.99 34 1.98 34 3 C33.21753906 3.06058594 32.43507812 3.12117188 31.62890625 3.18359375 C30.11103516 3.30927734 30.11103516 3.30927734 28.5625 3.4375 C27.55316406 3.51871094 26.54382813 3.59992187 25.50390625 3.68359375 C23.06359221 3.73211468 23.06359221 3.73211468 22 5 C27.94 5.33 33.88 5.66 40 6 C40 7.32 40 8.64 40 10 C32.74 10 25.48 10 18 10 C18.33 8.68 18.66 7.36 19 6 C13.06 5.67 7.12 5.34 1 5 C0.67 3.35 0.34 1.7 0 0 Z " fill="#3A5E79" transform="translate(75,48)"/>
<path d="M0 0 C0.99 0 1.98 0 3 0 C3 6.93 3 13.86 3 21 C3.99 21 4.98 21 6 21 C5.98839844 20.21496094 5.97679687 19.42992187 5.96484375 18.62109375 C5.91624493 12.96280225 5.98705251 7.57121122 7 2 C7.66 2 8.32 2 9 2 C10.81294964 22.65467626 10.81294964 22.65467626 9 29 C8.01 29 7.02 29 6 29 C6 28.34 6 27.68 6 27 C5.34 27 4.68 27 4 27 C4 27.66 4 28.32 4 29 C2.33388095 29.042721 0.66617115 29.04063832 -1 29 C-3.60515206 26.39484794 -2.94079277 20.43796643 -3 17 C-2.10275762 4.20551524 -2.10275762 4.20551524 0 0 Z " fill="#090909" transform="translate(132,132)"/>
<path d="M0 0 C0.99 0 1.98 0 3 0 C3.76567413 11.62123174 3.76567413 11.62123174 1.921875 14.94140625 C0.5625 16.25 0.5625 16.25 -2 18 C-2.495 18.495 -2.495 18.495 -3 19 C-5.26991887 19.09439978 -7.54281967 19.11742226 -9.81469727 19.11352539 C-10.88293228 19.11374443 -10.88293228 19.11374443 -11.9727478 19.1139679 C-14.33733112 19.1132687 -16.70183661 19.10547606 -19.06640625 19.09765625 C-20.70165463 19.09579209 -22.33690357 19.09436818 -23.97215271 19.09336853 C-28.28434785 19.08954318 -32.59650952 19.07971275 -36.90869141 19.06866455 C-41.30565946 19.0584508 -45.70263289 19.05387099 -50.09960938 19.04882812 C-58.73308831 19.03809049 -67.36654 19.02101387 -76 19 C-76 18.01 -76 17.02 -76 16 C-75.10464035 15.99413376 -74.2092807 15.98826752 -73.28678894 15.98222351 C-64.85519538 15.92435678 -56.42386843 15.85231495 -47.99253368 15.76428509 C-43.65772034 15.71952795 -39.32300214 15.68028384 -34.98803711 15.65356445 C-30.80573993 15.62758445 -26.62380785 15.5872203 -22.44173622 15.53681374 C-20.84496916 15.52010897 -19.2481389 15.50861721 -17.65129662 15.50238609 C-15.41712402 15.49278383 -13.18389309 15.46477338 -10.94995117 15.43237305 C-9.04133553 15.41571846 -9.04133553 15.41571846 -7.09416199 15.39872742 C-4.03951361 15.25049306 -4.03951361 15.25049306 -2.09761047 13.65534973 C-0.42370835 11.13087178 -0.47327905 8.80299039 -0.3125 5.8125 C-0.24675781 4.72582031 -0.18101562 3.63914062 -0.11328125 2.51953125 C-0.07589844 1.68808594 -0.03851563 0.85664062 0 0 Z " fill="#272E33" transform="translate(154,95)"/>
<path d="M0 0 C0.33 0 0.66 0 1 0 C1 4.29 1 8.58 1 13 C3.97 13 6.94 13 10 13 C10 13.66 10 14.32 10 15 C7.03 15 4.06 15 1 15 C1 39.42 1 63.84 1 89 C0.34 89 -0.32 89 -1 89 C-1.02312241 77.54349984 -1.04091457 66.08700519 -1.05181217 54.63048649 C-1.05704122 49.31134787 -1.06413927 43.99222516 -1.07543945 38.6730957 C-1.08626755 33.54436015 -1.09227667 28.41563994 -1.09487724 23.28689384 C-1.09673163 21.32558386 -1.10035251 19.36427476 -1.10573006 17.40297127 C-1.11293946 14.66584553 -1.11399099 11.92878403 -1.11352539 9.19165039 C-1.11712067 8.37238068 -1.12071594 7.55311096 -1.12442017 6.70901489 C-1.11405216 1.11405216 -1.11405216 1.11405216 0 0 Z " fill="#000000" transform="translate(56,18)"/>
<path d="M0 0 C0.80308594 -0.02578125 1.60617188 -0.0515625 2.43359375 -0.078125 C3.48740234 0.08429688 3.48740234 0.08429688 4.5625 0.25 C7.13301954 4.10577932 6.82074956 7.28905423 6.75 11.75 C6.74935547 12.52214844 6.74871094 13.29429687 6.74804688 14.08984375 C6.72233488 17.38669339 6.61136 20.10341999 5.5625 23.25 C6.2225 23.58 6.8825 23.91 7.5625 24.25 C6.5725 24.25 5.5825 24.25 4.5625 24.25 C4.2325 22.93 3.9025 21.61 3.5625 20.25 C2.9025 20.25 2.2425 20.25 1.5625 20.25 C1.2325 21.57 0.9025 22.89 0.5625 24.25 C-0.0975 24.25 -0.7575 24.25 -1.4375 24.25 C-1.4375 16.66 -1.4375 9.07 -1.4375 1.25 C-2.4275 1.745 -2.4275 1.745 -3.4375 2.25 C-3.74991371 4.79941373 -3.95053421 7.25361513 -4.0625 9.8125 C-4.10117188 10.52341797 -4.13984375 11.23433594 -4.1796875 11.96679688 C-4.27421783 13.72742425 -4.35695817 15.48867728 -4.4375 17.25 C-4.7675 17.25 -5.0975 17.25 -5.4375 17.25 C-5.46434679 14.60409986 -5.48426357 11.95846904 -5.5 9.3125 C-5.50837891 8.55775391 -5.51675781 7.80300781 -5.52539062 7.02539062 C-5.53402441 5.10005687 -5.48974333 3.17464419 -5.4375 1.25 C-3.84882134 -0.33867866 -2.19060484 0.04205961 0 0 Z " fill="#3B3B3B" transform="translate(96.4375,131.75)"/>
<path d="M0 0 C0.66 0.33 1.32 0.66 2 1 C2 1.66 2 2.32 2 3 C2.33 2.67 2.66 2.34 3 2 C5.43396019 1.90501354 7.83942952 1.87441583 10.27368164 1.88647461 C11.03460617 1.88632858 11.7955307 1.88618256 12.57951355 1.8860321 C15.10642298 1.88673138 17.63325962 1.89452445 20.16015625 1.90234375 C21.9075059 1.90420788 23.65485607 1.9056318 25.40220642 1.90663147 C30.01031934 1.91045707 34.61840095 1.92028771 39.22650146 1.93133545 C43.92508521 1.94154866 48.62367399 1.9461289 53.32226562 1.95117188 C62.54819087 1.96190995 71.77409284 1.97898687 81 2 C81 2.33 81 2.66 81 3 C56.25 3.33 31.5 3.66 6 4 C4.58365167 6.83269666 4.6536995 9.47466438 4.4375 12.625 C4.35371094 13.81351563 4.26992188 15.00203125 4.18359375 16.2265625 C4.12300781 17.14179688 4.06242187 18.05703125 4 19 C2.35 19 0.7 19 -1 19 C-1.06058594 18.15695313 -1.12117188 17.31390625 -1.18359375 16.4453125 C-1.26738281 15.34960938 -1.35117187 14.25390625 -1.4375 13.125 C-1.51871094 12.03445312 -1.59992187 10.94390625 -1.68359375 9.8203125 C-1.83001703 7.05271029 -1.83001703 7.05271029 -3 5 C-1.5625 2.375 -1.5625 2.375 0 0 Z " fill="#464646" transform="translate(58,12)"/>
<path d="M0 0 C2.375 -0.1875 2.375 -0.1875 5 0 C7.95300832 4.42951248 7.66928526 8.80136562 7 14 C5 16.6875 5 16.6875 3 18 C3 17.01 3 16.02 3 15 C2.21625 15.185625 1.4325 15.37125 0.625 15.5625 C-2 16 -2 16 -4 15 C-4.45356243 8.53673535 -3.59378942 5.39068413 0 0 Z " fill="#252525" transform="translate(81,132)"/>
<path d="M0 0 C0.33 1.32 0.66 2.64 1 4 C1.99 2.68 2.98 1.36 4 0 C5.32 0.33 6.64 0.66 8 1 C8 5.62 8 10.24 8 15 C7.67 15 7.34 15 7 15 C7 10.71 7 6.42 7 2 C6.01 2.33 5.02 2.66 4 3 C2.77479736 6.00847418 2.77479736 6.00847418 2 9 C2.66 9 3.32 9 4 9 C3.67 14.94 3.34 20.88 3 27 C2.67 27 2.34 27 2 27 C1.67 24.03 1.34 21.06 1 18 C0.67 20.31 0.34 22.62 0 25 C-0.33 25 -0.66 25 -1 25 C-1.97159933 17.31395526 -2.10920422 9.74136601 -2 2 C-2.66 2 -3.32 2 -4 2 C-4.33 8.27 -4.66 14.54 -5 21 C-5.66 21 -6.32 21 -7 21 C-6.85879984 18.41633755 -6.71221667 15.83317115 -6.5625 13.25 C-6.52318359 12.52039063 -6.48386719 11.79078125 -6.44335938 11.0390625 C-6.03377109 4.10756844 -6.03377109 4.10756844 -5 1 C-3 0 -3 0 0 0 Z " fill="#4B4B4B" transform="translate(143,132)"/>
<path d="M0 0 C14.85 0 29.7 0 45 0 C45 0.99 45 1.98 45 3 C29.82 3 14.64 3 -1 3 C-0.67 2.01 -0.34 1.02 0 0 Z " fill="#131313" transform="translate(87,21)"/>
<path d="M0 0 C0.99 0 1.98 0 3 0 C3 1.98 3 3.96 3 6 C3.99 6 4.98 6 6 6 C6.33 5.01 6.66 4.02 7 3 C7.05395478 4.62463842 7.09277195 6.24978541 7.125 7.875 C7.14820313 8.77992188 7.17140625 9.68484375 7.1953125 10.6171875 C7 13 7 13 5 15 C1.875 14.625 1.875 14.625 -1 14 C-1.02694851 12.04174127 -1.04637218 10.08337774 -1.0625 8.125 C-1.07410156 7.03445312 -1.08570313 5.94390625 -1.09765625 4.8203125 C-1 2 -1 2 0 0 Z " fill="#DDDDDD" transform="translate(37,139)"/>
<path d="M0 0 C0.99 0 1.98 0 3 0 C3 0.99 3 1.98 3 3 C3.66 3 4.32 3 5 3 C4.47594437 9.69007182 3.89536075 16.3487487 3 23 C2.67 23 2.34 23 2 23 C1.67 21.35 1.34 19.7 1 18 C0.34 19.32 -0.32 20.64 -1 22 C-1.09377123 14.58165418 -1.17402193 7.33763707 0 0 Z " fill="#767676" transform="translate(73,114)"/>
<path d="M0 0 C0.66 0 1.32 0 2 0 C2 0.99 2 1.98 2 3 C25.76 3 49.52 3 74 3 C74 3.33 74 3.66 74 4 C50.24 4 26.48 4 2 4 C2 5.32 2 6.64 2 8 C1.34 8 0.68 8 0 8 C0 6.68 0 5.36 0 4 C-0.66 3.67 -1.32 3.34 -2 3 C-1.34 3 -0.68 3 0 3 C0 2.01 0 1.02 0 0 Z " fill="#000000" transform="translate(76,109)"/>
<path d="M0 0 C7.26 0 14.52 0 22 0 C22 1.32 22 2.64 22 4 C14.74 4 7.48 4 0 4 C0 2.68 0 1.36 0 0 Z " fill="#213645" transform="translate(112,91)"/>
<path d="M0 0 C6.93 0 13.86 0 21 0 C21.66 1.32 22.32 2.64 23 4 C15.41 4 7.82 4 0 4 C0 2.68 0 1.36 0 0 Z " fill="#223747" transform="translate(124,62)"/>
<path d="M0 0 C7.26 0 14.52 0 22 0 C22 1.32 22 2.64 22 4 C15.07 4 8.14 4 1 4 C0.67 2.68 0.34 1.36 0 0 Z " fill="#213646" transform="translate(75,91)"/>
<path d="M0 0 C2.31 0 4.62 0 7 0 C6.67 3.96 6.34 7.92 6 12 C6.66 12 7.32 12 8 12 C8 10.35 8 8.7 8 7 C8.33 7 8.66 7 9 7 C9 12.28 9 17.56 9 23 C8.01 22.67 7.02 22.34 6 22 C5.34 22.99 4.68 23.98 4 25 C3.89668969 17.57313685 4.00137301 10.36487404 5 3 C2.525 2.01 2.525 2.01 0 1 C0 0.67 0 0.34 0 0 Z " fill="#828282" transform="translate(81,161)"/>
<path d="M0 0 C0.33 0 0.66 0 1 0 C1 11.88 1 23.76 1 36 C3.31 36 5.62 36 8 36 C8.33 33.69 8.66 31.38 9 29 C7.35 29 5.7 29 4 29 C4 27.68 4 26.36 4 25 C5.65 25 7.3 25 9 25 C11.21538462 31.27692308 11.21538462 31.27692308 10.125 34.9375 C9.568125 35.9584375 9.568125 35.9584375 9 37 C6.03 37 3.06 37 0 37 C0 24.79 0 12.58 0 0 Z " fill="#60A6D6" transform="translate(62,73)"/>
<path d="M0 0 C0.33 0 0.66 0 1 0 C1.33 5.94 1.66 11.88 2 18 C2.66 16.68 3.32 15.36 4 14 C3.50318324 22.01759463 3.50318324 22.01759463 1.6875 25.5625 C0 27 0 27 -4 27 C-4 22.38 -4 17.76 -4 13 C-3.67 13 -3.34 13 -3 13 C-2.87625 14.134375 -2.7525 15.26875 -2.625 16.4375 C-2.41875 17.613125 -2.2125 18.78875 -2 20 C-1.34 20.33 -0.68 20.66 0 21 C-0.08378906 19.73542969 -0.16757813 18.47085938 -0.25390625 17.16796875 C-0.35707862 15.5078316 -0.45992631 13.84767425 -0.5625 12.1875 C-0.61857422 11.35412109 -0.67464844 10.52074219 -0.73242188 9.66210938 C-0.78076172 8.85966797 -0.82910156 8.05722656 -0.87890625 7.23046875 C-0.94960327 6.12288208 -0.94960327 6.12288208 -1.02172852 4.99291992 C-1 3 -1 3 0 0 Z " fill="#626262" transform="translate(90,163)"/>
<path d="M0 0 C0.12086218 6.43255401 -0.17648136 12.61773055 -1 19 C-0.34 19 0.32 19 1 19 C1.33 16.69 1.66 14.38 2 12 C3.3271261 15.9813783 3.06915913 19.85045227 3 24 C2.34 24 1.68 24 1 24 C1 23.01 1 22.02 1 21 C0.01 20.67 -0.98 20.34 -2 20 C-2.33 17.03 -2.66 14.06 -3 11 C-3.66 11 -4.32 11 -5 11 C-4.8864371 9.35333797 -4.75882619 7.70763918 -4.625 6.0625 C-4.55539063 5.14597656 -4.48578125 4.22945312 -4.4140625 3.28515625 C-4.27742188 2.53105469 -4.14078125 1.77695313 -4 1 C-2 0 -2 0 0 0 Z " fill="#2C2C2C" transform="translate(127,133)"/>
<path d="M0 0 C0.33 0 0.66 0 1 0 C1.86012681 13.78114296 1.86012681 13.78114296 -1.25 18.375 C-4 21 -4 21 -8 21 C-8.33 19.68 -8.66 18.36 -9 17 C-8.195625 16.38125 -7.39125 15.7625 -6.5625 15.125 C-3.93520939 12.9462712 -3.1431765 12.21813656 -2.75390625 8.90625 C-2.62631829 7.30228709 -2.50131732 5.6981163 -2.37890625 4.09375 C-2 2 -2 2 0 0 Z " fill="#D1D1D1" transform="translate(90,135)"/>
<path d="M0 0 C7.26 0 14.52 0 22 0 C22 0.99 22 1.98 22 3 C21.41508789 3.02505615 20.83017578 3.0501123 20.22753906 3.07592773 C17.56815529 3.19222962 14.90909597 3.31480067 12.25 3.4375 C10.86941406 3.49647461 10.86941406 3.49647461 9.4609375 3.55664062 C8.57148437 3.59853516 7.68203125 3.64042969 6.765625 3.68359375 C5.54020996 3.73858032 5.54020996 3.73858032 4.29003906 3.79467773 C2.0965577 3.99134275 0.11603587 4.40300594 -2 5 C-1.34 3.35 -0.68 1.7 0 0 Z " fill="#1D2F3D" transform="translate(75,99)"/>
<path d="M0 0 C7.26 0 14.52 0 22 0 C22 0.99 22 1.98 22 3 C14.74 3 7.48 3 0 3 C0 2.01 0 1.02 0 0 Z " fill="#111C24" transform="translate(105,77)"/>
<path d="M0 0 C7.26 0 14.52 0 22 0 C22 0.99 22 1.98 22 3 C14.74 3 7.48 3 0 3 C0 2.01 0 1.02 0 0 Z " fill="#101A22" transform="translate(112,48)"/>
<path d="M0 0 C7.26 0 14.52 0 22 0 C22 0.99 22 1.98 22 3 C14.74 3 7.48 3 0 3 C0 2.01 0 1.02 0 0 Z " fill="#121D25" transform="translate(75,48)"/>
<path d="M0 0 C0 0.99 0 1.98 0 3 C0.66 3.66 1.32 4.32 2 5 C2.99 5 3.98 5 5 5 C5.26218749 8.14624993 5.24754367 9.61837017 3.5 12.3125 C2.7575 13.1478125 2.7575 13.1478125 2 14 C0.35 13.67 -1.3 13.34 -3 13 C-3.27429625 7.60550707 -3.36055646 4.48074195 0 0 Z " fill="#303030" transform="translate(80,134)"/>
<path d="M0 0 C2.64 0.33 5.28 0.66 8 1 C7.52202924 3.41690876 7.0426678 5.83352763 6.5625 8.25 C6.42779297 8.93191406 6.29308594 9.61382812 6.15429688 10.31640625 C5.50779289 13.56469458 4.84997305 16.79815978 4 20 C3.34 20 2.68 20 2 20 C1.89650183 13.58311325 2.25492456 7.37305598 3 1 C2.01 1.33 1.02 1.66 0 2 C0 1.34 0 0.68 0 0 Z " fill="#DBDBDB" transform="translate(124,132)"/>
<path d="M0 0 C6.6 0 13.2 0 20 0 C20 0.99 20 1.98 20 3 C13.4 3 6.8 3 0 3 C0 2.01 0 1.02 0 0 Z " fill="#0A1217" transform="translate(76,41)"/>
<path d="M0 0 C0.33 0 0.66 0 1 0 C1 1.98 1 3.96 1 6 C1.66 6 2.32 6 3 6 C3.05399736 7.45792884 3.09279177 8.91642712 3.125 10.375 C3.14820312 11.18710938 3.17140625 11.99921875 3.1953125 12.8359375 C3 15 3 15 1 17 C0.01 17 -0.98 17 -2 17 C-2.25287193 10.93107371 -1.69832609 5.83799592 0 0 Z " fill="#CDCDCD" transform="translate(74,137)"/>
<path d="M0 0 C0.66 0 1.32 0 2 0 C2.33 4.62 2.66 9.24 3 14 C1.68 14.33 0.36 14.66 -1 15 C-2.23184766 12.53630468 -2.16732342 10.8105499 -2.1875 8.0625 C-2.20167969 7.18722656 -2.21585938 6.31195313 -2.23046875 5.41015625 C-2 3 -2 3 0 0 Z " fill="#A3A3A3" transform="translate(50,139)"/>
<path d="M0 0 C4.9399341 -0.29058436 8.09825673 -0.21320034 12 3 C12.8125 5.1875 12.8125 5.1875 13 7 C12.34 7 11.68 7 11 7 C11 11.29 11 15.58 11 20 C10.67 20 10.34 20 10 20 C9.93941406 19.16855469 9.87882813 18.33710938 9.81640625 17.48046875 C9.69072266 15.85044922 9.69072266 15.85044922 9.5625 14.1875 C9.48128906 13.10855469 9.40007812 12.02960937 9.31640625 10.91796875 C9.09787539 7.94010095 9.09787539 7.94010095 8 5 C6.12612784 4.19787372 6.12612784 4.19787372 3.9375 3.8125 C3.20402344 3.65394531 2.47054687 3.49539062 1.71484375 3.33203125 C1.14894531 3.22246094 0.58304688 3.11289063 0 3 C0 2.01 0 1.02 0 0 Z " fill="#292929" transform="translate(144,11)"/>
<path d="M0 0 C0.66 0 1.32 0 2 0 C2 4.62 2 9.24 2 14 C1.34 14 0.68 14 0 14 C0 14.66 0 15.32 0 16 C-0.66 16 -1.32 16 -2 16 C-2.05423638 14.08364783 -2.09289963 12.16685075 -2.125 10.25 C-2.14820313 9.18265625 -2.17140625 8.1153125 -2.1953125 7.015625 C-2.00487687 4.07529894 -1.52670104 2.47638122 0 0 Z " fill="#D4D4D4" transform="translate(66,139)"/>
<path d="M0 0 C1.28571429 8.57142857 1.28571429 8.57142857 0 12 C-0.66 12 -1.32 12 -2 12 C-2 8.7 -2 5.4 -2 2 C-2.66 2 -3.32 2 -4 2 C-4.33 8.27 -4.66 14.54 -5 21 C-5.66 21 -6.32 21 -7 21 C-6.85879984 18.41633755 -6.71221667 15.83317115 -6.5625 13.25 C-6.52318359 12.52039063 -6.48386719 11.79078125 -6.44335938 11.0390625 C-6.03377109 4.10756844 -6.03377109 4.10756844 -5 1 C-3 0 -3 0 0 0 Z " fill="#717171" transform="translate(143,132)"/>
<path d="M0 0 C0.66 1.32 1.32 2.64 2 4 C2.66 4.66 3.32 5.32 4 6 C4.56265985 12.9769821 4.56265985 12.9769821 2.625 16.5 C1 18 1 18 -1 18 C-0.505 9.09 -0.505 9.09 0 0 Z " fill="#D7D7D7" transform="translate(103,137)"/>
<path d="M0 0 C1.0828125 0.37125 1.0828125 0.37125 2.1875 0.75 C2.1875 2.73 2.1875 4.71 2.1875 6.75 C1.1975 7.245 1.1975 7.245 0.1875 7.75 C-0.1425 7.09 -0.4725 6.43 -0.8125 5.75 C-2.83713255 5.09786708 -2.83713255 5.09786708 -4.8125 4.75 C-5.1425 5.41 -5.4725 6.07 -5.8125 6.75 C-6.4725 6.75 -7.1325 6.75 -7.8125 6.75 C-7.8125 3.75 -7.8125 3.75 -5.625 1.5 C-2.8125 -0.25 -2.8125 -0.25 0 0 Z " fill="#151515" transform="translate(162.8125,134.25)"/>
<path d="M0 0 C1.32 0 2.64 0 4 0 C5.42857143 8.57142857 5.42857143 8.57142857 3 12 C2.67 12 2.34 12 2 12 C2 8.7 2 5.4 2 2 C1.34 2 0.68 2 0 2 C-0.33 4.97 -0.66 7.94 -1 11 C-1.33 11 -1.66 11 -2 11 C-2.25 3.375 -2.25 3.375 0 0 Z " fill="#808080" transform="translate(109,132)"/>
<path d="M0 0 C0.99 0 1.98 0 3 0 C2.99476318 0.62567871 2.98952637 1.25135742 2.98413086 1.89599609 C2.96338382 4.72232057 2.95034714 7.54862905 2.9375 10.375 C2.92912109 11.35984375 2.92074219 12.3446875 2.91210938 13.359375 C2.90888672 14.30039063 2.90566406 15.24140625 2.90234375 16.2109375 C2.89448853 17.51490479 2.89448853 17.51490479 2.88647461 18.84521484 C2.85877649 21.05049994 2.85877649 21.05049994 4 23 C3.01 23 2.02 23 1 23 C0.93941406 21.81921875 0.87882813 20.6384375 0.81640625 19.421875 C0.73197418 17.8645723 0.64732751 16.30728121 0.5625 14.75 C0.52318359 13.97269531 0.48386719 13.19539062 0.44335938 12.39453125 C0.40146484 11.64042969 0.35957031 10.88632813 0.31640625 10.109375 C0.27974854 9.41811523 0.24309082 8.72685547 0.20532227 8.01464844 C0.05158498 5.9591649 0.05158498 5.9591649 -0.58227539 3.86816406 C-1 2 -1 2 0 0 Z " fill="#545454" transform="translate(132,132)"/>
<path d="M0 0 C0.33 0 0.66 0 1 0 C1 1.65 1 3.3 1 5 C1.66 5.33 2.32 5.66 3 6 C2.67 9.96 2.34 13.92 2 18 C1.01 18.33 0.02 18.66 -1 19 C-0.67 12.73 -0.34 6.46 0 0 Z " fill="#E9E9E9" transform="translate(151,135)"/>
<path d="M0 0 C1.485 0.99 1.485 0.99 3 2 C3 2.66 3 3.32 3 4 C4.98 4 6.96 4 9 4 C7.89113011 6.21773977 6.9581636 7.47698387 5 9 C2.8125 8.6875 2.8125 8.6875 1 8 C0.67 5.36 0.34 2.72 0 0 Z " fill="#080808" transform="translate(61,152)"/>
<path d="M0 0 C0.33 0 0.66 0 1 0 C1.103125 1.11375 1.20625 2.2275 1.3125 3.375 C1.539375 4.57125 1.76625 5.7675 2 7 C2.99 7.66 3.98 8.32 5 9 C4.67 10.65 4.34 12.3 4 14 C2.68 14 1.36 14 0 14 C0 9.38 0 4.76 0 0 Z " fill="#232323" transform="translate(86,176)"/>
<path d="M0 0 C0.66 0 1.32 0 2 0 C2.05429959 1.74965358 2.09292823 3.49979787 2.125 5.25 C2.14820312 6.22453125 2.17140625 7.1990625 2.1953125 8.203125 C1.99862781 11.0196498 1.44568916 12.60949036 0 15 C-0.33 15 -0.66 15 -1 15 C-1.02703381 13.06257659 -1.04641125 11.12504521 -1.0625 9.1875 C-1.07410156 8.10855469 -1.08570312 7.02960938 -1.09765625 5.91796875 C-1 3 -1 3 0 0 Z " fill="#F1F1F1" transform="translate(97,139)"/>
<path d="M0 0 C2.64 0 5.28 0 8 0 C8 1.32 8 2.64 8 4 C5.36 4 2.72 4 0 4 C0 2.68 0 1.36 0 0 Z " fill="#284153" transform="translate(75,84)"/>
<path d="M0 0 C2.64 0 5.28 0 8 0 C8 1.32 8 2.64 8 4 C5.36 4 2.72 4 0 4 C0 2.68 0 1.36 0 0 Z " fill="#263E4F" transform="translate(119,55)"/>
<path d="M0 0 C0.33 0 0.66 0 1 0 C1 2.97 1 5.94 1 9 C1.66 9 2.32 9 3 9 C3.33 6.69 3.66 4.38 4 2 C5.3271261 5.9813783 5.06915913 9.85045227 5 14 C4.34 14 3.68 14 3 14 C3 13.01 3 12.02 3 11 C2.01 10.67 1.02 10.34 0 10 C0 6.7 0 3.4 0 0 Z " fill="#404040" transform="translate(125,143)"/>
<path d="M0 0 C2.64 0.33 5.28 0.66 8 1 C7.34 4.96 6.68 8.92 6 13 C5.67 13 5.34 13 5 13 C3.86235649 8.73383684 3 5.43513689 3 1 C2.01 1.33 1.02 1.66 0 2 C0 1.34 0 0.68 0 0 Z " fill="#C2C2C2" transform="translate(124,132)"/>
<path d="M0 0 C1.98 0.99 1.98 0.99 4 2 C3.67 5.63 3.34 9.26 3 13 C2.34 13 1.68 13 1 13 C0.67 8.71 0.34 4.42 0 0 Z " fill="#CDCDCD" transform="translate(119,132)"/>
<path d="M0 0 C0.99 0 1.98 0 3 0 C3.25 5.625 3.25 5.625 1 9 C0.34 9 -0.32 9 -1 9 C-1.125 2.25 -1.125 2.25 0 0 Z " fill="#B3B3B3" transform="translate(158,139)"/>
<path d="M0 0 C0.66 0 1.32 0 2 0 C2.05395478 1.62463842 2.09277195 3.24978541 2.125 4.875 C2.14820312 5.77992188 2.17140625 6.68484375 2.1953125 7.6171875 C2 10 2 10 0 12 C-1.88059033 10.11940967 -1.12361218 7.50109962 -1.1328125 5.0078125 C-1 3 -1 3 0 0 Z " fill="#080808" transform="translate(109,134)"/>
<path d="M0 0 C3.3 0 6.6 0 10 0 C10 0.99 10 1.98 10 3 C6.7 3 3.4 3 0 3 C0 2.01 0 1.02 0 0 Z " fill="#243A4B" transform="translate(137,91)"/>
<path d="M0 0 C2.02350324 3.03525486 2.32124018 4.19426202 2.625 7.6875 C2.69976562 8.49574219 2.77453125 9.30398437 2.8515625 10.13671875 C2.90054688 10.75160156 2.94953125 11.36648437 3 12 C2.01 12.33 1.02 12.66 0 13 C0 8.71 0 4.42 0 0 Z " fill="#F5F5F5" transform="translate(50,141)"/>
<path d="M0 0 C2.97 0 5.94 0 9 0 C9 0.99 9 1.98 9 3 C6.03 3 3.06 3 0 3 C0 2.01 0 1.02 0 0 Z " fill="#203443" transform="translate(75,70)"/>
<path d="M0 0 C3.63 0.33 7.26 0.66 11 1 C11 1.33 11 1.66 11 2 C8.36 2 5.72 2 3 2 C3 2.99 3 3.98 3 5 C1.68 5 0.36 5 -1 5 C-0.67 3.35 -0.34 1.7 0 0 Z " fill="#64A2D0" transform="translate(116,53)"/>
<path d="M0 0 C2.97 0 5.94 0 9 0 C9 0.99 9 1.98 9 3 C6.03 3 3.06 3 0 3 C0 2.01 0 1.02 0 0 Z " fill="#1A2B37" transform="translate(100,48)"/>
<path d="M0 0 C0.99 0 1.98 0 3 0 C3.25 2.3125 3.25 2.3125 3 5 C1 6.8125 1 6.8125 -1 8 C-1.04241723 5.66705225 -1.04092937 3.33297433 -1 1 C-0.67 0.67 -0.34 0.34 0 0 Z " fill="#C4C4C4" transform="translate(82,139)"/>
<path d="M0 0 C1.65 0.33 3.3 0.66 5 1 C2.31158141 3.25245881 0.35358125 4.88213958 -3 6 C-3.33 6.99 -3.66 7.98 -4 9 C-3.46930939 5.17902761 -2.50298434 2.93828597 0 0 Z " fill="#575757" transform="translate(158,132)"/>
<path d="M0 0 C2.31 0 4.62 0 7 0 C7.33 0.99 7.66 1.98 8 3 C5.03 3 2.06 3 -1 3 C-0.67 2.01 -0.34 1.02 0 0 Z " fill="#192834" transform="translate(101,91)"/>
<path d="M0 0 C2.31 0 4.62 0 7 0 C7.33 0.99 7.66 1.98 8 3 C5.03 3 2.06 3 -1 3 C-0.67 2.01 -0.34 1.02 0 0 Z " fill="#191919" transform="translate(138,21)"/>
<path d="M0 0 C0.99 0 1.98 0 3 0 C3.33 3.3 3.66 6.6 4 10 C3.34 10 2.68 10 2 10 C2 8.35 2 6.7 2 5 C1.01 5.33 0.02 5.66 -1 6 C-0.67 4.02 -0.34 2.04 0 0 Z " fill="#AEAEAE" transform="translate(57,150)"/>
<path d="M0 0 C0.33 0 0.66 0 1 0 C1 4.95 1 9.9 1 15 C1.66 15.33 2.32 15.66 3 16 C1.02 16.99 1.02 16.99 -1 18 C-0.505 9.09 -0.505 9.09 0 0 Z " fill="#9C9C9C" transform="translate(103,137)"/>
<path d="M0 0 C2.64 0 5.28 0 8 0 C8 0.99 8 1.98 8 3 C5.36 3 2.72 3 0 3 C0 2.01 0 1.02 0 0 Z " fill="#15222C" transform="translate(93,77)"/>
<path d="M0 0 C0.66 0 1.32 0 2 0 C1.67 5.28 1.34 10.56 1 16 C0.67 16 0.34 16 0 16 C-0.19389096 13.5211787 -0.38040123 11.04219069 -0.5625 8.5625 C-0.61857422 7.85544922 -0.67464844 7.14839844 -0.73242188 6.41992188 C-0.86190993 4.61572163 -0.93521608 2.80768048 -1 1 C-0.67 0.67 -0.34 0.34 0 0 Z " fill="#919191" transform="translate(145,143)"/>
<path d="M0 0 C1.65 0 3.3 0 5 0 C5.33 1.32 5.66 2.64 6 4 C4.02 4 2.04 4 0 4 C0 2.68 0 1.36 0 0 Z " fill="#2C475B" transform="translate(66,98)"/>
<path d="M0 0 C1.65 0 3.3 0 5 0 C5.33 1.32 5.66 2.64 6 4 C4.02 4 2.04 4 0 4 C0 2.68 0 1.36 0 0 Z " fill="#2C475B" transform="translate(66,69)"/>
<path d="M0 0 C1.65 0 3.3 0 5 0 C5 1.32 5 2.64 5 4 C3.35 4 1.7 4 0 4 C0 2.68 0 1.36 0 0 Z " fill="#273F51" transform="translate(66,91)"/>
<path d="M0 0 C1.65 0 3.3 0 5 0 C5 1.32 5 2.64 5 4 C3.35 4 1.7 4 0 4 C0 2.68 0 1.36 0 0 Z " fill="#273F51" transform="translate(66,62)"/>
<path d="M0 0 C1.67542976 0.28604898 3.34385343 0.61781233 5 1 C0.25 4.875 0.25 4.875 -2 6 C-1.125 1.125 -1.125 1.125 0 0 Z " fill="#3E3E3E" transform="translate(49,132)"/>
<path d="M0 0 C1.32 0 2.64 0 4 0 C3.67 1.65 3.34 3.3 3 5 C2.01 4.67 1.02 4.34 0 4 C0 2.68 0 1.36 0 0 Z " fill="#040404" transform="translate(87,185)"/>
<path d="M0 0 C1.98 0 3.96 0 6 0 C6 0.99 6 1.98 6 3 C4.02 3 2.04 3 0 3 C0 2.01 0 1.02 0 0 Z " fill="#1E313F" transform="translate(66,77)"/>
<path d="M0 0 C1.98 0 3.96 0 6 0 C6 0.99 6 1.98 6 3 C4.02 3 2.04 3 0 3 C0 2.01 0 1.02 0 0 Z " fill="#1F3240" transform="translate(66,48)"/>
<path d="M0 0 C0.33 0 0.66 0 1 0 C0.67 2.97 0.34 5.94 0 9 C-0.66 8.67 -1.32 8.34 -2 8 C-1.125 1.125 -1.125 1.125 0 0 Z " fill="#1F1F1F" transform="translate(74,131)"/>
<path d="M0 0 C1.32 0.99 2.64 1.98 4 3 C3.01 3 2.02 3 1 3 C1 4.32 1 5.64 1 7 C0.34 7 -0.32 7 -1 7 C-1.04254356 5.00045254 -1.04080783 2.99958364 -1 1 C-0.67 0.67 -0.34 0.34 0 0 Z " fill="#0D0D0D" transform="translate(72,111)"/>
<path d="M0 0 C0.99 0 1.98 0 3 0 C3 1.32 3 2.64 3 4 C1.68 4.33 0.36 4.66 -1 5 C-0.67 3.35 -0.34 1.7 0 0 Z " fill="#030607" transform="translate(73,104)"/>
<path d="M0 0 C1.65 0 3.3 0 5 0 C5 0.99 5 1.98 5 3 C3.02 3 1.04 3 -1 3 C-0.67 2.01 -0.34 1.02 0 0 Z " fill="#1A2B37" transform="translate(67,41)"/>
</svg>
